#!OML:ASF F:\VICON\USERDATA\INSTALL\rory3\rory3.ASF
:FULLY-SPECIFIED
:DEGREES
2440
root -0.814728 18.187 2.6075 0.207486 20.1314 -2.19309
lowerback 11.658 0.132546 -2.54604
upperback 0.00235885 -0.275727 -1.70858
thorax -6.54554 -0.0778249 -0.315947
lowerneck -15.5982 -0.915504 -7.90217
upperneck 20.7621 -1.3378 9.19786
head 9.19764 -0.228819 4.35177
rclavicle 4.07509e-015 -6.36111e-015
rhumerus -5.18107 -49.5471 -9.14046
rradius 25.2326
rwrist -13.3701
rhand -19.013 0.97529
rfingers 7.12502
rthumb 7.29258 -28.879
lclavicle 4.07509e-015 -6.36111e-015
lhumerus -7.88059 12.8062 10.2998
lradius 18.9002
lwrist -0.284467
lhand -16.9338 24.8365
lfingers 7.12502
lthumb 9.29921 54.6114
rfemur 1.33379 14.02 11.4106
rtibia 17.7806
rfoot -23.2921 -26.1024
rtoes 0.0980133
lfemur -18.0732 -17.1235 -0.764335
ltibia 24.3662
lfoot -9.57046 2.22494
ltoes -15.9298
2441
root -0.799096 18.1852 2.58395 0.487186 20.8871 -2.19358
lowerback 11.964 0.161023 -2.49353
upperback 0.166832 -0.236675 -1.70998
thorax -6.54387 -0.0607431 -0.353635
lowerneck -15.4976 -0.923565 -7.8988
upperneck 20.6486 -1.36017 9.24682
head 9.14217 -0.235111 4.36113
rclavicle 3.27001e-014 4.37326e-014
rhumerus -4.51968 -49.9219 -9.52635
rradius 25.1511
rwrist -13.2559
rhand -19.0023 0.905672
rfingers 7.12502
rthumb 7.30296 -28.9483
lclavicle 3.27001e-014 4.37326e-014
lhumerus -8.36265 13.4285 10.7059
lradius 18.4795
lwrist -0.744665
lhand -16.6642 25.29
lfingers 7.12502
lthumb 9.55937 55.0532
rfemur 1.22536 13.6232 11.3377
rtibia 17.7135
rfoot -23.4635 -26.3568
rtoes 0.241829
lfemur -18.9178 -17.1725 -0.697134
ltibia 24.5984
lfoot -9.29461 1.68858
ltoes -15.6435
2442
root -0.784892 18.1835 2.55799 0.821935 21.6227 -2.20193
lowerback 12.2882 0.177709 -2.42453
upperback 0.287937 -0.2122 -1.70282
thorax -6.59801 -0.0505206 -0.389675
lowerneck -15.5153 -0.907697 -7.97065
upperneck 20.7063 -1.35715 9.41232
head 9.16607 -0.220351 4.43467
rclavicle -3.75703e-014 3.97569e-015
rhumerus -3.75486 -50.2095 -9.98856
rradius 25.0753
rwrist -13.2606
rhand -18.8796 1.09289
rfingers 7.12502
rthumb 7.42132 -28.7569
lclavicle -3.75703e-014 3.97569e-015
lhumerus -8.99708 14.0365 10.9836
lradius 18.0294
lwrist -1.5273
lhand -16.6265 24.9336
lfingers 7.12502
lthumb 9.59568 54.6951
rfemur 1.01046 13.2858 11.2719
rtibia 17.6883
rfoot -23.6476 -26.659
rtoes 0.433063
lfemur -19.8063 -17.278 -0.587644
ltibia 24.8028
lfoot -9.04331 1.21162
ltoes -14.9519
2443
root -0.771268 18.1798 2.53088 1.17277 22.3451 -2.28499
lowerback 12.6072 0.2326 -2.2426
upperback 0.374228 -0.122455 -1.71364
thorax -6.68676 -0.0119441 -0.520696
lowerneck -15.3232 -0.935218 -7.88944
upperneck 20.6429 -1.4404 9.48711
head 9.11663 -0.247841 4.43313
rclavicle -1.47101e-014 4.77083e-015
rhumerus -3.33371 -50.0882 -10.1705
rradius 25.0989
rwrist -13.7324
rhand -19.0964 1.19232
rfingers 7.12502
rthumb 7.21205 -28.6648
lclavicle -1.47101e-014 4.77083e-015
lhumerus -9.55246 14.4881 11.3208
lradius 17.6936
lwrist -2.19919
lhand -16.3677 24.1626
lfingers 7.12502
lthumb 9.84543 53.9124
rfemur 0.694256 13.0758 11.2932
rtibia 17.718
rfoot -23.8182 -27.0742
rtoes 0.624685
lfemur -20.7136 -17.4132 -0.37395
ltibia 24.9524
lfoot -8.82672 0.799245
ltoes -14.5028
